PathFileType	4	(X/Y/Z)	C:/Users/beibeiliu/ov580/test_trc/User2\sequence.30_training_dense_left.trc
DataRate	CameraRate	NumFrames	NumMarkers	Units	OrigDataRate	OrigDataStartFrame	OrigNumFrames
120	120	20	19	mm	120	152	302
Frame#	Time	ThumbCMC			ThumbMCP			ThumbIP			ThumbTip			IndexMCP			IndexPIP			IndexTip			MiddleMCP			MiddlePIP			MiddleTip			RingMCP			RingPIP			RingTip			PinkyMCP			PinkyPIP			PinkyTip			BackHand1			BackHand2			BackHand3	
		X0	Y0	Z0	X1	Y1	Z1	X2	Y2	Z2	X3	Y3	Z3	X4	Y4	Z4	X5	Y5	Z5	X6	Y6	Z6	X7	Y7	Z7	X8	Y8	Z8	X9	Y9	Z9	X10	Y10	Z10	X11	Y11	Z11	X12	Y12	Z12	X13	Y13	Z13	X14	Y14	Z14	X15	Y15	Z15	X16	Y16	Z16	X17	Y17	Z17	X18	Y18	Z18	
151	1.25833	-136.173	5.12738	126.726	-123.178	-19.4163	109.321	-108.558	-43.4082	83.8471	-109.451	-61.7355	67.9168	-150.005	-0.534193	47.777	-142.258	-19.1864	25.2058	-138.728	-43.8405	6.66526	-178.763	-3.07491	41.2908	-175.503	-18.3195	10.6129	-170.982	-36.4825	-16.1955	-199.978	-10.9976	42.4529	-199.208	-24.21	18.966	-197.115	-38.0126	-2.63355	-216.701	-21.4726	61.369	-221.269	-34.3558	39.3782	-223.964	-42.7322	18.6678	-207.407	11.6876	97.8686	-210.308	21.2929	130.427	-175.012	26.9886	110.853	
152	1.26667	-138.379	13.7406	126.767	-121.298	-7.86293	109.886	-108.269	-26.9796	81.3677	-107.586	-43.16	60.6428	-148.441	18.3228	45.6356	-139.739	3.89765	21.4731	-137.371	-14.9089	1.96995	-178.558	16.1089	38.7064	-172.484	4.48877	8.95844	-170.166	-12.9825	-17.5324	-198.495	6.77861	44.1059	-198.573	-5.07902	18.488	-193.398	-21.8145	-9.64228	-220.079	-8.18132	59.7307	-216.522	-17.4043	33.6495	-217.304	-26.915	10.9901	-206.706	21.371	102.432	-207.989	30.0498	133.276	-175.861	37.3912	117.051	
153	1.275	-141.325	20.0148	126.898	-119.411	2.42894	104.282	-112.637	-12.2121	73.8194	-109.192	-25.7647	53.2296	-154.305	37.7432	49.3052	-141.849	28.2317	18.0472	-139.239	9.57626	-4.41926	-176.509	36.8866	37.0575	-174.206	26.3048	7.6616	-164.704	10.6689	-19.9462	-201.438	21.5098	43.8755	-195.8	12.5292	12.9478	-186.023	-0.195098	-8.72112	-215.332	6.20218	56.1684	-216.484	-4.28736	27.2583	-213.577	-11.4317	5.97155	-208.944	29.573	99.0932	-211.676	32.2143	136.546	-177.548	45.3017	121.662	
154	1.28333	-141.18	23.3497	125.131	-118.498	9.10888	97.8505	-109.335	-1.28406	63.8607	-113.784	-10.253	42.6433	-150.582	56.4045	47.9137	-146.267	49.796	20.0756	-139.981	36.1182	-3.43429	-179.383	51.3635	40.6659	-170.565	46.1016	8.11497	-160.895	27.4997	-21.6969	-194.831	37.5815	43.7174	-192.149	26.9364	10.5375	-180.244	13.3242	-11.9314	-216.598	17.3283	53.5158	-210.385	12.2791	23.2607	-207.64	2.34745	3.15103	-206.006	37.8526	102.247	-210.823	32.6554	137.192	-174.446	48.7221	121.015	
155	1.29167	-139.973	22.7963	125.192	-123.926	12.69	92.6942	-109.954	5.78509	61.1368	-110.713	1.26035	32.6321	-149.125	66.5506	54.5231	-141.652	67.0324	21.8212	-136.896	53.4359	-4.99817	-176.595	63.3336	42.7532	-166.373	56.8959	5.65024	-159.616	38.1108	-19.291	-192.316	48.2953	41.1706	-189.565	40.6014	11.144	-173.345	24.0463	-12.3404	-212.447	28.5649	46.2154	-209.181	21.1454	19.6796	-202.067	14.6309	-2.61434	-204.899	43.1445	101.626	-209.053	34.7404	136.597	-177.513	49.7228	124.505	
156	1.3	-138.962	20.8824	119.526	-122.991	12.1566	91.3529	-108.359	7.74723	56.8019	-107.895	2.26196	30.9373	-153.014	68.9708	51.1131	-145.202	70.2412	22.5169	-137.638	55.7594	-3.81078	-176.714	66.6753	39.5494	-167.393	61.2196	6.83701	-157.388	37.4823	-19.9758	-194.788	51.6438	36.3669	-182.012	45.4667	8.93866	-169.52	25.3843	-13.2508	-210.031	32.543	48.2463	-204.475	28.836	19.2227	-198.219	19.012	-6.09978	-205.33	41.749	98.023	-207.521	31.8296	131.142	-176.5	47.6988	119.007	
157	1.30833	-137.779	14.5525	120.159	-122.137	3.79195	91.5065	-109.13	0.439953	54.635	-114.735	-2.66377	28.2022	-149.119	66.3203	52.4953	-143.792	66.3044	22.0747	-135.651	47.5793	-5.60742	-177.138	62.678	41.6268	-164.488	58.0771	4.76945	-155.806	28.7106	-20.1641	-195.73	48.8279	35.9798	-183.196	43.2331	7.78542	-169.243	19.5038	-13.3171	-211.758	32.5425	43.4471	-202.654	28.9838	15.9519	-187.186	15.4262	-4.54318	-208.333	38.2673	94.5602	-211.268	26.9973	127.888	-172.764	42.4952	120.479	
158	1.31667	-141.168	8.43625	113.968	-121.224	-3.44347	85.2796	-114.268	-10.8233	54.8447	-116.353	-15.7942	27.5366	-152.744	58.2046	45.7978	-145.653	55.0866	14.8669	-140.694	32.5707	-7.23682	-174.898	57.2414	34.0941	-167.783	49.9403	3.08638	-159.903	18.7234	-18.1027	-196.233	43.8237	30.4751	-184.98	35.3374	4.38627	-174.064	9.84112	-11.6781	-213.243	26.6044	40.3771	-205.504	19.4147	13.1095	-187.073	-1.26603	-3.93612	-207.537	30.3957	95.2658	-212.886	22.3458	126.257	-174.164	38.195	115.998	
159	1.325	-141.238	1.13859	114.702	-122.627	-11.974	82.733	-115.632	-20.9458	49.4329	-120.784	-28.4578	24.3722	-151.515	46.0255	43.8949	-146.395	39.0318	7.47602	-144.857	13.9278	-7.13981	-180.217	44.0667	32.9215	-172.467	31.4535	-3.18193	-160.702	-2.17002	-16.1836	-199.49	30.3848	30.1053	-186.09	19.9545	2.02167	-172.877	-10.7593	-5.94529	-212.201	16.0653	40.238	-200.953	5.13347	12.8997	-185.131	-16.3075	2.16323	-210.13	25.1032	93.1577	-213.428	19.1042	123.189	-177.699	31.9187	110.936	
160	1.33333	-144.55	-4.57706	115.394	-126.286	-18.9834	85.6036	-117.05	-31.1998	51.6644	-123.583	-38.5486	22.9537	-156.575	35.1752	37.7976	-148.987	25.96	7.79848	-143.834	-6.01997	-7.6403	-178.328	32.5246	27.4391	-171.063	14.5359	-3.47235	-161.634	-24.5506	-9.59978	-198.224	18.4432	30.4503	-189.188	-2.12921	0.41789	-175.321	-29.9659	2.53912	-215.225	2.84139	39.7719	-201.016	-15.459	11.0075	-181.843	-39.9275	13.5392	-206.718	21.0389	88.4903	-209.642	13.9623	123.208	-175.576	27.4328	112.428	
161	1.34167	-145.52	-7.52605	117.288	-124.566	-23.2803	87.6869	-120.007	-33.2158	53.2876	-123.225	-40.624	26.5746	-153.133	29.6672	41.6351	-147.529	20.5343	11.2435	-145.177	-13.997	-2.91945	-179.083	23.9422	32.1194	-171.527	4.11885	-0.132345	-161.262	-33.569	-1.85895	-198.056	10.5603	27.8879	-184.542	-9.53476	7.07146	-172.815	-43.6841	16.2058	-214.144	-3.5406	41.973	-198.769	-21.3504	17.8423	-185.501	-49.9883	23.2876	-208.797	15.6029	89.3186	-215.235	9.82071	121.827	-179.997	22.6405	111.252	
162	1.35	-146.445	-7.49262	118.362	-125.683	-19.8187	88.1851	-116.735	-29.0984	56.6238	-122.464	-33.4633	30.6349	-152.833	33.4725	45.3083	-149.631	20.33	11.3605	-143.068	-10.7996	-0.398119	-176.95	26.9293	31.662	-164.268	4.72929	2.32579	-155.236	-31.2409	4.73062	-192.502	11.6861	28.5995	-183.644	-10.0576	10.3879	-171.137	-40.2897	22.7729	-211.741	-0.963078	39.3435	-197.909	-23.5238	17.9644	-181.189	-51.1427	31.8811	-209.492	15.2102	93.65	-214.118	9.08628	123.973	-176.019	21.8438	118.035	
163	1.35833	-143.36	-6.57873	118.751	-125.18	-15.9927	91.8768	-115.003	-18.5066	52.8541	-118.554	-22.6754	29.2364	-151.294	40.2606	49.6689	-146.583	31.7835	16.3363	-140.402	3.04659	3.57521	-172.573	36.4047	36.6289	-165.626	17.999	6.92581	-152.793	-18.6521	8.10332	-192.691	21.2325	34.3253	-179.81	3.13142	11.4582	-165.834	-28.9282	26.8498	-207.37	6.96707	42.2226	-192.604	-11.5954	18.4935	-181.119	-37.5418	29.3982	-209.119	19.6583	96.7258	-210.837	8.65686	128.362	-174.901	20.7899	121.847	
164	1.36667	-144.154	-3.86515	117.232	-123.82	-10.5717	90.3686	-116.064	-9.04127	54.3637	-115.935	-8.99146	27.4907	-148.588	51.1123	52.649	-141.638	45.0615	20.9573	-137.809	15.1736	9.05976	-169.829	47.9402	43.1456	-161.375	30.6865	9.00676	-152.686	-8.60069	12.4532	-189.922	32.8461	35.3083	-179.788	14.4406	10.5906	-165.447	-14.2448	24.7367	-208.412	16.5605	42.1456	-187.716	1.00054	17.7631	-173.895	-26.1747	29.616	-207.71	21.8411	96.6494	-214.757	8.07918	127.937	-175.302	25.5991	120.255	
165	1.375	-141.69	0.343881	116.656	-124.086	-3.83431	88.6199	-113.55	-0.770985	52.3347	-117.926	0.800021	26.4017	-149.448	57.5931	58.9813	-144.518	50.9636	23.1527	-139.064	19.6003	13.9446	-173.016	54.9071	43.0318	-160.104	38.5088	10.0349	-148.453	2.65887	15.7576	-186.31	41.9624	36.6946	-174.384	23.2762	11.935	-163.723	-5.6267	25.9826	-204.298	25.9465	41.1266	-191.81	10.4826	15.167	-175.8	-14.4661	27.1987	-209.511	27.1065	97.4789	-211.878	13.0478	125.617	-179.166	27.9058	121.096	
166	1.38333	-139.706	1.94121	115.685	-120.009	-2.13782	86.9092	-108.563	1.90813	51.0417	-120.407	3.49402	26.1971	-151.032	59.6812	58.8527	-144.118	54.3107	23.5233	-133.721	19.4938	18.3955	-172.471	59.9251	41.3741	-160.374	42.5615	10.7328	-150.938	4.52128	17.8819	-193.013	43.9153	36.5285	-176.308	28.8881	12.7501	-168.197	-3.07568	25.269	-207.818	27.4682	38.045	-187.491	12.8277	16.9772	-176.809	-14.1044	25.9841	-210.283	27.6182	97.3444	-210.306	11.5985	126.261	-173.937	29.3838	119.802	
167	1.39167	-140.253	-0.92384	116.954	-121.757	-3.10451	83.2248	-109.011	-4.06131	52.0936	-118.001	-2.01057	21.9069	-152.546	59.3623	51.61	-147.196	48.9646	19.8584	-139.387	14.4224	19.5944	-176.078	55.2729	39.4679	-164.206	40.241	9.30721	-156.684	-0.118508	18.2603	-192.019	40.5459	37.6057	-179.731	23.8743	9.81448	-169.572	-7.95155	26.3054	-207.962	24.4233	41.3452	-194.165	8.45634	14.6696	-180.474	-19.0638	25.2299	-209.387	27.4752	94.7685	-211.159	10.1056	124.938	-174.112	28.5447	116.952	
168	1.4	-143.201	-2.57716	111.153	-122.9	-11.8962	85.6397	-115.578	-13.3583	48.8037	-119.02	-15.2917	20.8264	-154.812	49.5732	46.8598	-151.283	37.2084	14.3814	-145.004	2.71863	16.6979	-176.086	46.0113	34.0586	-168.108	27.5216	4.38826	-158.301	-12.8431	18.298	-194.784	30.5968	28.2815	-180.999	12.132	8.62048	-172.024	-15.776	23.9811	-211.458	14.4669	39.0129	-193.763	-3.43123	14.7392	-182.295	-26.2993	28.6595	-209.38	20.926	94.0623	-213.335	8.32389	122.811	-175.403	26.4829	116.62	
169	1.40833	-139.919	-7.77265	113.676	-126.389	-17.9572	81.814	-118.444	-25.5345	48.3288	-123.592	-32.8256	25.0284	-157.414	36.1181	38.8482	-151.475	22.0992	8.01406	-146.081	-10.9467	13.0274	-182.841	30.3841	28.6481	-169.113	8.19864	-0.338952	-161.809	-26.1751	13.6333	-198.82	16.4781	29.2108	-190.178	-5.9005	4.27906	-176.558	-36.333	26.3781	-210.853	1.60247	37.6288	-200.756	-21.293	15.302	-187.78	-44.074	31.6556	-208.655	13.9436	91.0693	-211.157	8.3965	123.946	-177.995	22.4732	110.049	
170	1.41667	-140.47	-9.08305	107.684	-120.147	-26.4612	84.3831	-114.48	-39.4257	54.5603	-126.265	-50.1501	26.1085	-161.221	20.2211	28.9362	-156.952	3.7132	3.2837	-150.11	-30.6757	11.2227	-186.216	14.5499	20.8279	-172.969	-10.554	-4.56384	-168.54	-43.6694	14.4652	-203.534	-1.13597	20.9699	-190.425	-25.4803	4.24429	-178.81	-48.5075	24.4282	-218.095	-14.9802	37.5186	-202.389	-34.9626	17.5736	-187.501	-58.7478	38.1601	-213.345	3.65895	87.1095	-214.615	3.94291	119.885	-179.438	17.3356	105.277	
